<svg width="336" height="166" viewBox="0 0 336 166" fill="none" xmlns="http://www.w3.org/2000/svg">
<path d="M67.418 83.162C63.932 83.162 60.861 82.332 58.205 80.672C55.6043 79.012 53.557 76.688 52.063 73.7C50.6243 70.712 49.905 67.2813 49.905 63.408C49.905 59.2027 50.735 55.4677 52.395 52.203C54.055 48.9383 56.296 46.3653 59.118 44.484C61.9953 42.6027 65.26 41.662 68.912 41.662C70.8487 41.662 72.7577 42.0493 74.639 42.824C76.5203 43.5433 78.0973 44.5393 79.37 45.812V12.28C80.4213 11.8927 81.694 11.699 83.188 11.699C84.4607 11.699 85.7057 11.8927 86.923 12.28V67.475C86.923 70.5183 87.3103 72.704 88.085 74.032C88.915 75.36 90.2153 76.024 91.986 76.024C92.7607 76.024 93.3417 76.356 93.729 77.02C94.1717 77.684 94.393 78.5693 94.393 79.676C94.393 80.5613 94.144 81.3637 93.646 82.083C93.2033 82.8023 92.4563 83.162 91.405 83.162C86.1483 83.162 82.607 81.004 80.781 76.688C79.1763 78.7353 77.2397 80.34 74.971 81.502C72.7023 82.6087 70.1847 83.162 67.418 83.162ZM57.624 63.408C57.624 67.3367 58.5093 70.4353 60.28 72.704C62.106 74.9173 64.596 76.024 67.75 76.024C71.236 76.024 74.0303 74.8343 76.133 72.455C78.291 70.0757 79.37 66.9493 79.37 63.076V53.78C78.2633 52.286 76.8523 51.0963 75.137 50.211C73.4217 49.2703 71.651 48.8 69.825 48.8C67.4457 48.8 65.343 49.4363 63.517 50.709C61.691 51.9817 60.2523 53.7247 59.201 55.938C58.1497 58.096 57.624 60.586 57.624 63.408ZM91.9834 76.024C93.8094 76.024 95.5801 75.1663 97.2954 73.451C99.0661 71.6803 100.56 69.3287 101.777 66.396C101.556 65.068 101.445 63.7123 101.445 62.329C101.445 58.345 102.303 54.8037 104.018 51.705C105.734 48.6063 108.058 46.1717 110.99 44.401C113.978 42.575 117.326 41.662 121.033 41.662C124.741 41.662 128.061 42.575 130.993 44.401C133.926 46.1717 136.222 48.6063 137.882 51.705C139.598 54.8037 140.455 58.345 140.455 62.329C140.455 66.313 139.598 69.882 137.882 73.036C136.222 76.19 133.926 78.68 130.993 80.506C128.116 82.2767 124.796 83.162 121.033 83.162C117.658 83.162 114.587 82.4427 111.82 81.004C109.109 79.51 106.868 77.4903 105.097 74.945C101.667 80.423 97.1017 83.162 91.4024 83.162C90.6831 83.162 90.1021 82.83 89.6594 82.166C89.2167 81.502 88.9954 80.6443 88.9954 79.593C88.9954 77.2137 89.9914 76.024 91.9834 76.024ZM120.95 76.024C124.492 76.024 127.314 74.779 129.416 72.289C131.574 69.799 132.653 66.479 132.653 62.329C132.653 60.2817 132.349 58.4003 131.74 56.685C128.42 56.5743 125.405 55.9103 122.693 54.693C120.037 53.4757 117.935 51.8157 116.385 49.713C114.172 50.6537 112.429 52.2583 111.156 54.527C109.884 56.7403 109.247 59.3963 109.247 62.495C109.247 66.5343 110.299 69.799 112.401 72.289C114.559 74.779 117.409 76.024 120.95 76.024ZM162.771 124.662C158.123 124.662 154.775 122.947 152.728 119.516C150.68 116.085 149.657 111.354 149.657 105.323V55.357C147.665 55.855 145.59 56.27 143.432 56.602C141.274 56.934 139.309 57.1 137.539 57.1C135.602 57.1 134.191 56.851 133.306 56.353C132.42 55.855 131.978 54.8867 131.978 53.448C131.978 52.452 132.171 51.7327 132.559 51.29C132.946 50.792 133.389 50.543 133.887 50.543H136.128C138.341 50.543 140.582 50.3493 142.851 49.962C145.064 49.5747 147.333 49.0213 149.657 48.302V19.75C149.657 16.762 149.878 14.0507 150.321 11.616C150.819 9.12599 151.676 6.99566 152.894 5.22499C153.89 3.731 155.162 2.51366 156.712 1.573C158.316 0.632329 160.308 0.161995 162.688 0.161995C167.004 0.161995 170.324 2.09866 172.648 5.97199C174.972 9.84533 176.134 15.3233 176.134 22.406C176.134 27.552 175.304 32.1723 173.644 36.267C172.039 40.3617 169.798 43.82 166.921 46.642C164.043 49.464 160.751 51.622 157.044 53.116V68.554C157.818 67.5027 158.87 66.728 160.198 66.23C164.016 67.392 167.28 70.048 169.992 74.198C171.873 75.4153 173.81 76.024 175.802 76.024C176.521 76.024 177.102 76.356 177.545 77.02C177.987 77.684 178.209 78.5693 178.209 79.676C178.209 80.7273 177.932 81.5573 177.379 82.166C176.881 82.83 176.161 83.162 175.221 83.162C174.833 83.162 174.474 83.162 174.142 83.162C175.027 85.9287 175.691 88.9443 176.134 92.209C176.632 95.529 176.881 99.015 176.881 102.667C176.881 109.916 175.663 115.394 173.229 119.101C170.849 122.808 167.363 124.662 162.771 124.662ZM157.044 18.007V45.812C160.474 43.8753 163.269 40.8873 165.427 36.848C167.64 32.7533 168.747 27.9117 168.747 22.323C168.747 17.343 168.221 13.5527 167.17 10.952C166.174 8.35133 164.68 7.051 162.688 7.051C158.925 7.051 157.044 10.703 157.044 18.007ZM157.044 105.323C157.044 109.473 157.514 112.599 158.455 114.702C159.395 116.805 160.972 117.856 163.186 117.856C165.233 117.856 166.81 116.5 167.917 113.789C169.023 111.133 169.577 107.232 169.577 102.086C169.577 93.3433 168.387 86.316 166.008 81.004C164.182 80.2293 162.466 79.3163 160.862 78.265C159.312 77.2137 158.04 76.107 157.044 74.945V105.323ZM175.213 83.162C174.494 83.162 173.913 82.83 173.47 82.166C173.027 81.502 172.806 80.6443 172.806 79.593C172.806 78.4863 173.083 77.6287 173.636 77.02C174.134 76.356 174.826 76.024 175.711 76.024C177.482 76.024 179.391 75.3877 181.438 74.115C183.485 72.8423 185.477 71.0993 187.414 68.886C186.971 66.8387 186.612 64.4317 186.335 61.665C186.114 58.8983 185.948 55.5507 185.837 51.622C185.726 47.6933 185.671 42.9623 185.671 37.429H185.754L185.671 37.346C185.671 32.4213 185.726 28.2437 185.837 24.813C185.948 21.3823 186.169 18.505 186.501 16.181C186.833 13.857 187.248 11.8927 187.746 10.288C188.299 8.628 188.991 7.134 189.821 5.806C191.038 3.814 192.532 2.37533 194.303 1.49C196.129 0.604662 198.121 0.161995 200.279 0.161995C204.595 0.161995 207.915 2.071 210.239 5.889C212.563 9.707 213.725 14.9637 213.725 21.659C213.725 29.6823 212.148 37.927 208.994 46.393C205.84 54.859 201.33 62.9377 195.465 70.629C196.24 72.455 197.374 73.8383 198.868 74.779C200.362 75.6643 202.077 76.107 204.014 76.107C204.789 76.107 205.397 76.439 205.84 77.103C206.338 77.7117 206.587 78.5693 206.587 79.676C206.587 82 205.563 83.162 203.516 83.162C200.528 83.162 197.872 82.5257 195.548 81.253C193.224 79.9803 191.426 78.348 190.153 76.356C185.56 80.8933 180.58 83.162 175.213 83.162ZM193.058 37.844C193.058 43.654 193.086 48.4403 193.141 52.203C193.252 55.9657 193.39 59.0643 193.556 61.499C197.761 54.527 200.943 47.721 203.101 41.081C205.259 34.3857 206.338 27.884 206.338 21.576C206.338 16.9833 205.812 13.4697 204.761 11.035C203.71 8.545 202.216 7.3 200.279 7.3C198.121 7.3 196.489 8.57266 195.382 11.118C194.829 12.446 194.358 14.1337 193.971 16.181C193.639 18.173 193.39 20.8843 193.224 24.315C193.113 27.7457 193.058 32.2553 193.058 37.844ZM203.716 83.162C202.941 83.162 202.332 82.83 201.89 82.166C201.392 81.502 201.143 80.6443 201.143 79.593C201.143 78.4863 201.419 77.6287 201.973 77.02C202.526 76.4113 203.245 76.107 204.131 76.107C207.506 76.107 210.577 75.2217 213.344 73.451C216.166 71.625 218.462 69.135 220.233 65.981C220.067 64.819 219.984 63.6017 219.984 62.329C219.984 58.345 220.841 54.8037 222.557 51.705C224.272 48.6063 226.596 46.1717 229.529 44.401C232.517 42.575 235.864 41.662 239.572 41.662C243.279 41.662 246.599 42.575 249.532 44.401C252.464 46.1717 254.761 48.6063 256.421 51.705C258.136 54.8037 258.994 58.345 258.994 62.329C258.994 66.313 258.136 69.882 256.421 73.036C254.761 76.19 252.464 78.68 249.532 80.506C246.654 82.2767 243.334 83.162 239.572 83.162C236.03 83.162 232.849 82.3597 230.027 80.755C227.205 79.1503 224.936 76.9647 223.221 74.198C220.897 77.0753 218.047 79.2887 214.672 80.838C211.352 82.3873 207.7 83.162 203.716 83.162ZM239.489 76.024C243.03 76.024 245.852 74.779 247.955 72.289C250.113 69.799 251.192 66.479 251.192 62.329C251.192 60.2817 250.887 58.4003 250.279 56.685C246.959 56.5743 243.943 55.9103 241.232 54.693C238.576 53.4757 236.473 51.8157 234.924 49.713C232.71 50.6537 230.967 52.2583 229.695 54.527C228.422 56.7403 227.786 59.3963 227.786 62.495C227.786 66.5343 228.837 69.799 230.94 72.289C233.098 74.779 235.947 76.024 239.489 76.024ZM287.579 83.162C283.373 83.162 280.109 81.585 277.785 78.431C275.461 75.277 274.299 70.8503 274.299 65.151V55.523C274.299 53.4203 273.994 51.788 273.386 50.626C272.832 49.4087 271.892 48.8 270.564 48.8C269.346 48.8 267.659 49.3257 265.501 50.377C263.343 51.4283 260.88 52.9223 258.114 54.859C257.616 55.191 257.09 55.357 256.537 55.357C255.762 55.357 254.987 54.9143 254.213 54.029C253.438 53.1437 253.051 52.203 253.051 51.207C253.051 50.2663 253.521 49.4917 254.462 48.883C258.39 46.2823 261.572 44.4287 264.007 43.322C266.441 42.2153 268.848 41.662 271.228 41.662C274.492 41.662 277.065 42.824 278.947 45.148C280.883 47.4167 281.852 50.4047 281.852 54.112V64.238C281.852 68.2773 282.35 71.2653 283.346 73.202C284.397 75.0833 286.002 76.024 288.16 76.024C290.926 76.024 292.974 74.53 294.302 71.542C295.63 68.554 296.294 64.487 296.294 59.341V54.361C296.792 54.195 297.345 54.0567 297.954 53.946C298.618 53.8353 299.282 53.78 299.946 53.78C301.329 53.78 302.574 53.9737 303.681 54.361V59.341C303.681 65.151 304.234 69.384 305.341 72.04C306.503 74.696 308.246 76.024 310.57 76.024C312.451 76.024 314 75.194 315.218 73.534C316.435 71.8187 317.348 69.4947 317.957 66.562C318.565 63.574 318.87 60.1433 318.87 56.27C318.87 55.938 318.87 55.606 318.87 55.274C316.158 54.278 314.166 52.95 312.894 51.29C313.115 49.63 313.585 48.0807 314.305 46.642C315.079 45.148 316.02 43.9583 317.127 43.073C318.233 42.1323 319.34 41.662 320.447 41.662C321.609 41.662 322.632 42.2983 323.518 43.571C324.458 44.8437 325.178 46.559 325.676 48.717C327.004 48.6063 328.359 48.4403 329.743 48.219C331.126 47.9977 332.288 47.721 333.229 47.389C333.837 48.3297 334.308 49.464 334.64 50.792C335.027 52.0647 335.165 53.282 335.055 54.444C334.003 54.7207 332.731 54.9973 331.237 55.274C329.798 55.5507 328.193 55.772 326.423 55.938C326.423 61.3053 325.814 66.0363 324.597 70.131C323.379 74.2257 321.553 77.435 319.119 79.759C316.739 82.0277 313.807 83.162 310.321 83.162C308.052 83.162 306.005 82.581 304.179 81.419C302.353 80.257 300.886 78.597 299.78 76.439C298.452 78.5417 296.736 80.2017 294.634 81.419C292.531 82.581 290.179 83.162 287.579 83.162Z" fill="#2A2724"/>
<path d="M19.9524 83C16.1197 83 12.6816 82.0956 9.638 80.2869C6.65079 78.4216 4.28356 75.8781 2.53632 72.6562C0.845439 69.4344 0 65.7886 0 61.7189C0 57.6492 0.87362 54.0317 2.62086 50.8664C4.3681 47.7011 6.73533 45.2141 9.72255 43.4053C12.7661 41.5401 16.1761 40.6074 19.9524 40.6074C23.7287 40.6074 27.1104 41.5401 30.0976 43.4053C33.0848 45.2141 35.4239 47.7011 37.1148 50.8664C38.862 54.0317 39.7356 57.6492 39.7356 61.7189C39.7356 65.7886 38.862 69.4344 37.1148 72.6562C35.4239 75.8781 33.0848 78.4216 30.0976 80.2869C27.1668 82.0956 23.785 83 19.9524 83ZM19.8678 75.7085C23.475 75.7085 26.3495 74.4367 28.4913 71.8932C30.6894 69.3496 31.7885 65.9582 31.7885 61.7189C31.7885 59.6276 31.4785 57.7058 30.8585 55.9535C27.4768 55.8405 24.405 55.1622 21.6432 53.9187C18.9378 52.6752 16.7961 50.9795 15.2179 48.8316C12.9634 49.7925 11.188 51.4317 9.89164 53.7491C8.5953 56.0101 7.94713 58.7232 7.94713 61.8885C7.94713 66.0147 9.01802 69.3496 11.1598 71.8932C13.3579 74.4367 16.2606 75.7085 19.8678 75.7085Z" fill="#2A2724"/>
<path d="M67.4436 83C63.8927 83 60.7646 82.1521 58.0592 80.4564C55.4102 78.7607 53.3247 76.3868 51.8029 73.3345C50.3375 70.2822 49.6048 66.7778 49.6048 62.8211C49.6048 59.3732 50.1684 56.1796 51.2957 53.2404C45.8285 54.5405 39.9104 55.1905 33.5415 55.1905C32.696 55.1905 32.0197 54.8513 31.5124 54.1731C31.0051 53.4382 30.7515 52.5339 30.7515 51.4599C30.7515 49.1425 31.6815 47.9837 33.5415 47.9837C43.0667 47.9837 51.8029 46.3446 59.7501 43.0662C62.5682 41.427 65.64 40.6074 68.9654 40.6074C70.938 40.6074 72.8826 41.0031 74.7989 41.7944C76.7152 42.5292 78.3215 43.5467 79.6179 44.8467V10.5935C80.6888 10.1978 81.9851 10 83.5069 10C84.8032 10 86.0714 10.1978 87.3114 10.5935V66.9756C87.3114 70.0844 87.7059 72.3171 88.495 73.6736C89.3404 75.0302 90.6649 75.7085 92.4686 75.7085C93.0885 75.7085 93.7649 75.5672 94.4976 75.2846C95.2303 75.0019 95.9912 74.578 96.7803 74.0128C97.7385 74.465 98.5275 75.2563 99.1475 76.3868C99.7675 77.4607 100.049 78.5346 99.993 79.6086C99.0912 80.626 97.9357 81.4456 96.5267 82.0674C95.1176 82.6891 93.5958 83 91.9613 83H91.8767C86.5223 83 82.9151 80.7956 81.0551 76.3868C79.4206 78.4781 77.4479 80.1173 75.1371 81.3043C72.8262 82.4348 70.2617 83 67.4436 83ZM57.4674 62.8211C57.4674 66.8343 58.3692 69.9996 60.1728 72.3171C62.0328 74.578 64.5691 75.7085 67.7817 75.7085C71.3326 75.7085 74.1789 74.4932 76.3207 72.0627C78.5188 69.6322 79.6179 66.4386 79.6179 62.482V52.9861C78.4906 51.4599 77.0534 50.2447 75.3061 49.3403C73.5589 48.3794 71.7553 47.899 69.8953 47.899C67.4717 47.899 65.33 48.549 63.47 49.849C61.61 51.1491 60.1446 52.9295 59.0737 55.1905C58.0028 57.3949 57.4674 59.9384 57.4674 62.8211Z" fill="#2A2724"/>
<path d="M31 92C37.6716 97.2282 43.7362 98.4736 48.6667 97.8542C53.984 97.1863 57.9822 94.3493 60 92" stroke="#2A2724" stroke-width="7" stroke-linecap="round"/>
</svg>
